<svg xmlns="http://www.w3.org/2000/svg" viewBox="0 0 760 470" font-family="-apple-system, Segoe UI, Roboto, sans-serif" role="img" aria-label="pocketdesk stack diagram">
  <defs>
    <marker id="arrow" markerWidth="10" markerHeight="10" refX="6" refY="3" orient="auto" markerUnits="strokeWidth">
      <path d="M0,0 L6,3 L0,6 Z" fill="#adb5bd"/>
    </marker>
  </defs>

  <!-- host -->
  <rect x="200" y="24" width="360" height="66" rx="12" fill="#4c6ef5"/>
  <text x="380" y="52" text-anchor="middle" fill="#fff" font-size="15" font-weight="600">Pixel 10 Pro XL — today</text>
  <text x="380" y="74" text-anchor="middle" fill="#dbe4ff" font-size="13">11 Pro XL — tomorrow (Tensor G6)</text>

  <!-- arrows host -> row2 -->
  <line x1="380" y1="90" x2="132" y2="150" stroke="#adb5bd" stroke-width="2" marker-end="url(#arrow)"/>
  <line x1="380" y1="90" x2="380" y2="150" stroke="#adb5bd" stroke-width="2" marker-end="url(#arrow)"/>
  <line x1="380" y1="90" x2="628" y2="150" stroke="#adb5bd" stroke-width="2" marker-end="url(#arrow)"/>

  <!-- row2: display -->
  <rect x="20" y="152" width="224" height="84" rx="10" fill="#12b886"/>
  <text x="132" y="178" text-anchor="middle" fill="#fff" font-size="13" font-weight="600">XR display</text>
  <text x="132" y="198" text-anchor="middle" fill="#e6fcf5" font-size="11">Beast · Luma Ultra · XReal 1S</text>
  <text x="132" y="216" text-anchor="middle" fill="#e6fcf5" font-size="11">USB-C DisplayPort</text>

  <!-- row2: input -->
  <rect x="268" y="152" width="224" height="84" rx="10" fill="#f59f00"/>
  <text x="380" y="178" text-anchor="middle" fill="#fff" font-size="13" font-weight="600">Keyboard + trackpad</text>
  <text x="380" y="198" text-anchor="middle" fill="#fff3bf" font-size="11">ProtoArc XK01 TP</text>
  <text x="380" y="216" text-anchor="middle" fill="#fff3bf" font-size="11">Bluetooth (via Android)</text>

  <!-- row2: vm -->
  <rect x="516" y="152" width="224" height="84" rx="10" fill="#7048e8"/>
  <text x="628" y="184" text-anchor="middle" fill="#fff" font-size="13" font-weight="600">Android Linux Terminal</text>
  <text x="628" y="204" text-anchor="middle" fill="#e5dbff" font-size="11">Debian VM (AVF / KVM)</text>

  <!-- arrows vm -> row3 -->
  <line x1="628" y1="236" x2="525" y2="316" stroke="#adb5bd" stroke-width="2" marker-end="url(#arrow)"/>
  <line x1="628" y1="236" x2="675" y2="316" stroke="#adb5bd" stroke-width="2" marker-end="url(#arrow)"/>

  <!-- row3 apps -->
  <rect x="430" y="318" width="190" height="64" rx="10" fill="#495057"/>
  <text x="525" y="346" text-anchor="middle" fill="#fff" font-size="13" font-weight="600">labwc + VS Code</text>
  <text x="525" y="366" text-anchor="middle" fill="#ced4da" font-size="11">Wayland (native GUI)</text>

  <rect x="636" y="318" width="104" height="64" rx="10" fill="#343a40"/>
  <text x="688" y="342" text-anchor="middle" fill="#fff" font-size="12" font-weight="600">code-server</text>
  <text x="688" y="360" text-anchor="middle" fill="#ced4da" font-size="10">browser · fallback</text>

  <!-- caption -->
  <text x="380" y="430" text-anchor="middle" fill="#868e96" font-size="12">All input pairs in Android · multi-pane comes from the Wayland compositor's tiling</text>
</svg>
